<?xml version="1.0" encoding="utf-8"?>
<!-- Generator: Adobe Illustrator 19.0.0, SVG Export Plug-In . SVG Version: 6.00 Build 0)  -->
<svg version="1.1" id="Layer_1" xmlns="http://www.w3.org/2000/svg" xmlns:xlink="http://www.w3.org/1999/xlink" x="0px" y="0px"
	 viewBox="0 0 792 612" style="enable-background:new 0 0 792 612;" xml:space="preserve">
<style type="text/css">
	.st0{fill:#F37049;}
	.st1{fill:#FFFFFF;}
</style>
<g id="XMLID_18_">
	<g id="XMLID_282_">
		<g id="XMLID_478_">
			<path id="XMLID_483_" class="st0" d="M83.7,259.2c-3.9-3-8.8-4.2-13.6-3.5c-4.9,0.7-9.2,3.2-12.1,7.1c-2.9,3.9-4.2,8.7-3.5,13.6
				c0.7,4.9,3.2,9.2,7.1,12.1l29.1,22c3,2.3,3.6,6.5,1.3,9.5c-2.3,3-6.5,3.6-9.5,1.3L35,285.6H17.6v11.6h13.5l44.4,33.4
				c3.3,2.5,7.2,3.7,11,3.7c5.6,0,11.1-2.5,14.7-7.3c6.1-8.1,4.5-19.6-3.6-25.8l-29.1-22c-3-2.2-3.6-6.5-1.3-9.5
				c1.1-1.4,2.7-2.4,4.5-2.6c1.8-0.3,3.6,0.2,5,1.3l47.5,35.7h17.3v-11.6h-13.5L83.7,259.2z"/>
			<path id="XMLID_482_" class="st0" d="M127.8,263l-30-22.6c-18.5-13.9-44.8-10.2-58.7,8.2c-4.1,5.4-6.8,11.8-7.9,18.4
				c0,0.3-0.2,1.3-0.3,3l12.4,9.3c-1.3-6-0.7-10.5-0.7-10.5c0.8-4.9,2.7-9.4,5.7-13.3c10.1-13.3,29.1-16,42.4-5.9l33.1,24.9h17.6
				V263H127.8z"/>
			<path id="XMLID_480_" class="st0" d="M116.4,320.9c-0.8,4.9-2.7,9.3-5.7,13.3c-10.1,13.3-29.1,16-42.4,5.9l-33.1-24.9H17.6v11.6
				h13.7l30,22.6c7.5,5.7,16.4,8.4,25.2,8.4c12.7,0,25.3-5.7,33.5-16.6c4.1-5.4,6.8-11.8,7.9-18.6c0-0.1,0.1-1.2,0.3-2.9l-11.7-8.8
				C117,314.7,116.6,319.5,116.4,320.9z"/>
		</g>
		<g id="XMLID_283_">
			<g id="XMLID_470_">
				<g id="XMLID_471_">
					<path id="XMLID_472_" class="st1" d="M213.7,335.2c-10.8,0-19.5-2.3-23.7-3.6c-1.6-0.4-2.8-2-2.8-3.7l1.3-5.3
						c0.3-1.7,2.3-2.6,3.6-2.6l1.9,0.3c3.4,0.8,12.2,2.9,21.4,2.9c7.6,0,16.6-2.1,16.6-11.8c0-8-5.5-9.5-18-11
						c-9.7-1.2-27.6-3.6-27.6-22.9c0-10.4,5.1-22.8,29.6-22.8c12.2,0,21.8,3,23.6,3.6c1.7,0.6,2.8,2,2.8,3.7l-1.2,5.3
						c-0.7,1.7-2.4,2.6-3.6,2.6l-2.1-0.4c-3-0.7-10.8-2.6-19.9-2.6c-14.8,0-16.5,5.7-16.5,9.9c0,7.5,6.3,9.8,17.8,11.4l1.9,0.2
						c11.6,1.5,26.1,3.3,26.1,22.3C245,326.7,234.1,335.2,213.7,335.2z"/>
				</g>
			</g>
			<g id="XMLID_458_">
				<g id="XMLID_53_">
					<g id="XMLID_54_">
						<path id="XMLID_55_" class="st1" d="M314.1,334.1H303c-2,0-3.7-1.4-4.2-3.3l-7.8-34.2l-8.1,34.2c-0.6,2-2.2,3.3-4.2,3.3h-11
							c-2,0-3.6-1.2-4.2-3.2l-12.2-49.2c-0.1-2,0.4-3.1,0.9-3.6c0.5-0.6,1.3-0.9,2.1-0.9h5.9c1.9,0,3.4,1.2,3.7,3.2l9.3,41.7
							l9.3-39.5c0.4-1.9,2.1-3.3,4.2-3.3h9.1c2,0,3.6,1.2,4.2,3.2L309,322l9.4-41.8c0.2-1.8,1.7-3,3.5-3h5.9c1.9,0,3.4,1.5,3.4,3.4
							l0,0.3l-12.8,50C317.9,332.7,316.2,334.1,314.1,334.1z"/>
					</g>
				</g>
			</g>
			<g id="XMLID_441_">
				<g id="XMLID_89_">
					<g id="XMLID_90_">
						<g id="XMLID_91_">
							<path id="XMLID_92_" class="st1" d="M363.9,335.4c-19.4,0-27.6-8.9-27.6-29.7c0-17.9,4.3-29.8,25.4-29.8
								c10.8,0,17.9,3.3,21.8,10c3.1,5.3,3.5,12.4,3.5,18.7v4.9c-0.3,1.8-1.8,3.5-3.5,3.5H349c0.2,3.4,1,5.7,2.6,7.7
								c2.2,2.8,6.1,4,13.1,4c5.4,0,8.9-1,13-2.1l1.2-0.3c0.5-0.1,0.7-0.1,1-0.1c2.1,0,2.9,1.2,3.2,2.2l1.2,4.2
								c0,2.6-1.6,3.5-2.2,3.8C377.3,334.2,370.2,335.4,363.9,335.4z M361.5,286.6c-7.2,0-10.1,1.7-11.5,6.9c-0.8,2.8-1,5.7-1.1,8.5
								l25.3-0.1c-0.1-2.7-0.4-5.6-1.1-8.5C371.7,288.3,368.8,286.6,361.5,286.6z"/>
						</g>
					</g>
				</g>
			</g>
			<g id="XMLID_427_">
				<g id="XMLID_82_">
					<g id="XMLID_83_">
						<g id="XMLID_84_">
							<path id="XMLID_85_" class="st1" d="M421.1,335.4c-21.7,0-26.1-11.4-26.1-29.8c0-21.4,7.2-29.7,25.5-29.7
								c4.3,0,8.5,0.4,12.6,1.3l-0.4-2.5l0-15.4c0-1.9,1.2-3.1,3.2-3.4l5.5-1.4c2.2,0,3.5,1.3,3.5,3.5v65.3c0,3.9,0,8.3-8,10
								C433.1,334.3,428.7,335.4,421.1,335.4z M421.3,286.6c-9.7,0-13.7,2.7-13.7,19.1c0,18.2,5,19,13.8,19c4.9,0,9.2-0.9,11.2-1.4
								v-35.4C430.5,287.4,426.1,286.6,421.3,286.6z"/>
						</g>
					</g>
				</g>
			</g>
			<g id="XMLID_412_">
				<g id="XMLID_80_">
					<g id="XMLID_81_">
						<g id="XMLID_88_">
							<path id="XMLID_95_" class="st1" d="M467.6,334.1h-4.9c-2.1,0-3.7-1.6-3.7-3.7v-49.5c0-2.1,1.6-3.7,3.7-3.7h4.9
								c2.1,0,3.7,1.6,3.7,3.7v49.5C471.3,332.5,469.7,334.1,467.6,334.1z M467.6,272.5h-4.9c-2.1,0-3.7-1.6-3.7-3.6v-5
								c0-2.1,1.6-3.7,3.7-3.7h4.9c2.1,0,3.7,1.6,3.7,3.7v5C471.3,271,469.7,272.5,467.6,272.5z"/>
						</g>
					</g>
				</g>
			</g>
			<g id="XMLID_399_">
				<g id="XMLID_49_">
					<g id="XMLID_50_">
						<path id="XMLID_51_" class="st1" d="M503.7,335.4c-8.4,0-15.7-2.5-18.5-3.5c-0.6-0.3-2.2-1.1-2.2-3l1.1-4.7
							c0.3-1.5,1.6-2.6,3.2-2.6c0.6,0.1,1.1,0.2,1.8,0.4c2.8,0.8,8.5,2.5,14.8,2.5c11.2,0,11.2-4.8,11.2-6.6c0-5.1-2.4-5.7-9.5-6.6
							l-3.9-0.6c-5.5-0.8-18.2-2.7-18.2-16.9c0-15.5,14.1-17.8,22.5-17.8c5.6,0,11.6,0.8,16.8,2.2c1.5,0.2,2.7,1.5,2.7,3.2l-0.7,4.9
							c-0.3,1.6-1.5,2.6-3.1,2.6l-2.1-0.3c-2.8-0.5-8.4-1.6-12.8-1.6c-11,0-11,4.6-11,6.1c0,4.1,3.2,5.2,10.9,6.2l1.3,0.2
							c8.7,1.1,19.5,2.5,19.5,17.5C527.5,329.2,519.5,335.4,503.7,335.4z"/>
					</g>
				</g>
			</g>
			<g id="XMLID_387_">
				<g id="XMLID_44_">
					<g id="XMLID_45_">
						<path id="XMLID_47_" class="st1" d="M581.8,334.1h-4.9c-2.1,0-3.7-1.6-3.7-3.7v-37c0-5.4-1.4-6.7-7.3-6.7
							c-6.7,0-13.6,1.6-16.5,2.3v41.5c0,2.1-1.5,3.7-3.6,3.7h-5c-2.1,0-3.7-1.6-3.7-3.7v-71.2c0-1.4,0.8-3,3.1-3.4l5.3-1.4
							c0,0,0.1,0,0.1,0c2.4,0,3.9,1.4,3.9,3.4v17.3l-0.5,2.8c5.7-1.3,12.6-2.2,17.2-2.2c13.6,0,19.4,5,19.4,16.6v37.9
							C585.5,332.6,584,334.1,581.8,334.1z"/>
					</g>
				</g>
			</g>
			<g id="XMLID_378_">
				<g id="XMLID_41_">
					<g id="XMLID_42_">
						<path id="XMLID_43_" class="st1" d="M665,334.1h-12.1c-1.1,0-2.7-0.5-3.9-2.8l-36.5-64.1v63.2c0,2.1-1.7,3.8-3.8,3.8h-5.3
							c-2.1,0-3.8-1.7-3.8-3.8v-70.8c0-2.1,1.7-3.8,3.8-3.8h15.2c1.1,0,2.7,0.5,3.9,2.8l33.4,59.8v-59.1c0-2,1.4-3.5,3.5-3.5h5.8
							c2.1,0,3.6,1.4,3.6,3.5v71.1C668.8,332.4,667.1,334.1,665,334.1z"/>
					</g>
				</g>
			</g>
			<g id="XMLID_308_">
				<g id="XMLID_75_">
					<g id="XMLID_76_">
						<g id="XMLID_77_">
							<path id="XMLID_78_" class="st1" d="M708.5,335.4c-19.4,0-27.6-8.9-27.6-29.7c0-17.9,4.3-29.8,25.4-29.8
								c10.8,0,17.9,3.3,21.8,10c3.1,5.3,3.5,12.4,3.5,18.7v4.9c-0.3,1.8-1.8,3.5-3.5,3.5h-34.5c0.2,3.4,1,5.7,2.6,7.7
								c2.2,2.8,6.1,4,13.1,4c5.4,0,8.9-1,13-2.1l1.2-0.3c0.5-0.1,0.7-0.1,1-0.1c2.1,0,2.9,1.2,3.2,2.2l1.2,4.2
								c0,2.6-1.6,3.5-2.2,3.8C721.9,334.2,714.8,335.4,708.5,335.4z M706.1,286.6c-7.2,0-10.1,1.7-11.5,6.9c-0.8,2.8-1,5.7-1.1,8.5
								l25.3-0.1c-0.1-2.7-0.4-5.6-1.1-8.5C716.4,288.3,713.4,286.6,706.1,286.6z"/>
						</g>
					</g>
				</g>
			</g>
			<g id="XMLID_285_">
				<g id="XMLID_37_">
					<g id="XMLID_38_">
						<path id="XMLID_39_" class="st1" d="M759,335.4c-11.1,0-16.8-5.4-16.8-16.1v-55c0-1.4,0.8-3,3.1-3.4l5.3-1.4c0,0,0.1,0,0.1,0
							c2.4,0,3.9,1.4,3.9,3.4v14.2h14.6c2.1,0,3.7,1.6,3.7,3.7v3.4c0,2.1-1.6,3.7-3.7,3.7h-14.6v32.1c0,3.3,0.9,4.5,6,4.5
							c3.4,0,7.8-1,8.7-1.2l0.4,0c2.4,0,3.3,1.3,3.6,2.4l1,3.9c0.1,2-0.9,3.5-2.4,3.8C767.6,334.7,763.4,335.4,759,335.4z"/>
					</g>
				</g>
			</g>
		</g>
	</g>
</g>
</svg>
