<svg id="Capa_1" data-name="Capa 1" xmlns="http://www.w3.org/2000/svg" viewBox="0 0 195.96 98.85"><defs><style>.cls-1{fill:#c29800;}.cls-2,.cls-3{fill:#333;}.cls-3{fill-rule:evenodd;}</style></defs><title>logoMesa de trabajo 27</title><path class="cls-1" d="M81.51,60,78,67.63H75.88L86.83,44l.86-1.83L88.55,44l11,23.67H97.43L93.89,60Zm11.6-1.69L87.69,46.59l-5.4,11.68Z"/><path class="cls-1" d="M102.77,43.08h10.16a6.67,6.67,0,0,1,4.64,1.77,5.69,5.69,0,0,1,2,4.37,5.22,5.22,0,0,1-.91,3,5.86,5.86,0,0,1-2.3,2,6.18,6.18,0,0,1,3.2,2.4,6.76,6.76,0,0,1,1.22,4,7.12,7.12,0,0,1-1.9,5,6.2,6.2,0,0,1-4.71,2.11H102.77Zm1.88,10.38h8.28a4.87,4.87,0,0,0,3.37-1.28,3.93,3.93,0,0,0,0-5.94A4.81,4.81,0,0,0,112.93,45h-8.28Zm0,1.87V65.74h9.49a4.39,4.39,0,0,0,3.32-1.49,5.62,5.62,0,0,0,0-7.43,4.33,4.33,0,0,0-3.31-1.49Z"/><rect class="cls-1" x="125.33" y="43.08" width="1.89" height="24.55"/><polygon class="cls-1" points="141.47 44.97 141.47 67.63 139.59 67.63 139.59 44.97 131.41 44.97 131.41 43.08 149.63 43.08 149.63 44.97 141.47 44.97"/><path class="cls-1" d="M173.24,43.06V58.55a10,10,0,0,1-20,0V43.06h1.89V58.55a8.12,8.12,0,0,0,16.24,0V43.06Z"/><path class="cls-1" d="M179.75,61.62a4.07,4.07,0,0,0,1.2,2.94,6.45,6.45,0,0,0,2.91,1.68,10.54,10.54,0,0,0,3.05.43,10.37,10.37,0,0,0,3-.43,6.42,6.42,0,0,0,2.93-1.68,4.09,4.09,0,0,0,1.18-2.94A4,4,0,0,0,191.76,58a22.13,22.13,0,0,0-5.07-1.68,23,23,0,0,1-6.06-2.11,5.63,5.63,0,0,1-2.76-5.09,5.92,5.92,0,0,1,1.58-4.13,8.45,8.45,0,0,1,3.89-2.29,12.28,12.28,0,0,1,3.58-.52,12.41,12.41,0,0,1,3.58.52,8.35,8.35,0,0,1,3.88,2.29A5.9,5.9,0,0,1,196,49.08h-1.9a4.14,4.14,0,0,0-1.18-2.95,6.68,6.68,0,0,0-2.93-1.68,10.46,10.46,0,0,0-3-.43,10.63,10.63,0,0,0-3.05.43A6.7,6.7,0,0,0,181,46.13a4.12,4.12,0,0,0-1.2,2.95,4,4,0,0,0,2.31,3.68,22.57,22.57,0,0,0,5.07,1.68,23.45,23.45,0,0,1,6.07,2.11A5.62,5.62,0,0,1,196,61.62a5.93,5.93,0,0,1-1.59,4.15,8.41,8.41,0,0,1-3.88,2.29,12.38,12.38,0,0,1-3.58.51,12.25,12.25,0,0,1-3.58-.51,8.51,8.51,0,0,1-3.89-2.29,6,6,0,0,1-1.58-4.15Z"/><polygon class="cls-2" points="63.67 57.86 34.48 73.66 34.48 90.84 21.91 98.85 21.91 20.72 34.48 17.83 34.48 60.94 63.67 47.22 63.67 11.11 71.48 9.31 71.48 67.28 63.67 72.25 63.67 57.86"/><path class="cls-3" d="M21.91,98.85,0,67.28v-58L21.91,20.72ZM2.41,50.5s-.07,0-.09.07C1.69,51.73,1.06,52.88.46,54a.88.88,0,0,0-.07.39q0,1.65,0,3.32a1.57,1.57,0,0,0,.08.49c.46,1.18.94,2.37,1.44,3.63l3-6.29L2.41,50.5M12.58,22.11l-1.89-3.63c-.72-1.39-.71-1.3-1.57-1.24s-1.25.58-1.58,1.56a4.46,4.46,0,0,0-.14,2.3c.24,1.44.42,2.87.63,4.36a.82.82,0,0,0,.2,0l3.08-1.08a.35.35,0,0,0,.2-.16c.35-.68.71-1.38,1.07-2.1M15.64,77l-2.4-4.81c-1-1.91-.94-1.87-1.74-1.88-.56,0-1,.15-1.12,1.12a8.75,8.75,0,0,0,.35,3.81c.46,1.69.83,3.35,1.25,5.09.07,0,.12,0,.16,0l2.73-.77a.22.22,0,0,0,.16-.16c.21-.78.4-1.58.61-2.42M2.59,41.88a.63.63,0,0,0,.1-.12c.5-1,1-2,1.51-3a1.39,1.39,0,0,0,0-.63c-.52-1.77-1.05-3.52-1.57-5.24,0-.14-.1-.28-.17-.49C1.88,33.8,1.36,35.15.86,36.49a.75.75,0,0,0,0,.38c.54,1.62,1.11,3.26,1.7,5M13.8,39c-.05,0-.18.06-.25.18-.57,1-1.12,1.92-1.67,2.86-.42.72-.41.72.13,2.14.15.38.26.55.48.59,1.17.24,2.38.53,3.63.8a.3.3,0,0,0,.34-.17c.22-.5.41-1,.6-1.6a3.13,3.13,0,0,0-.47-1.92c-.91-1-1.8-1.87-2.79-2.89m-8,18.5L2.74,64l.82,2s.06,0,.07,0c1-1.42,2-2.89,3-4.41a.67.67,0,0,0,0-.41c-.27-1.16-.56-2.31-.88-3.63M17.35,82.17l-.37.07-3.8.94c-.47.12-.46.12-.13,1.53a3.51,3.51,0,0,0,.61,1.42c.48.65,1,1.41,1.47,2.08.15.2.35.35.42.28.89-.87,1.78-1.81,2.68-2.78a.63.63,0,0,0,0-.48c-.28-1-.59-2-.91-3.06M16.12,58.51C14.82,58,14,58.29,13.7,59.9a5,5,0,0,1-.23.66.82.82,0,0,0,0,.44c.5,1.66,1,3.34,1.6,5.15l2.8-2.94-1.74-4.7M10.9,34.76c.75.76,1.45,1.49,2.17,2.19.09.09.24,0,.3-.09a18.17,18.17,0,0,1,1.13-1.92c.47-.59.52-1.42.16-2.7-.28-1-.45-2-.7-3.12L10.9,34.76M4.48,68.31,8.33,68,7.11,63l-3,4.38.38,1M7.71,60l1.93-2.82a1.66,1.66,0,0,0-.26-1.47c-.52-.83-1-1.6-1.58-2.42L6.34,56.41a1.61,1.61,0,0,0,.22,1.35c.36.73.73,1.45,1.15,2.28M17.93,75.38c.89.24,1.74.41,2.64.73.47.16.68,0,.63-.82s0-1.63,0-2.51l-5.35-4.14,2.1,6.74M5.54,13c-.49-.45-.83-.42-1.15,0-.91,1.07-1.84,2-2.73,3l-.24.28.28.71c1.32-.31,2.65-.63,4-1,.17,0,.19-.19.15-.48-.12-.84-.24-1.68-.36-2.53M18.73,86.8l-2.66,2.72,5.14,7.35a9.21,9.21,0,0,0-.15-2.2c-.7-2.56-1.52-5.16-2.33-7.87M4.2,23.56l2-5.56-.06-.13-3.84.79L4.2,23.56M9,70.62l-.09-.17-3.47.16L8,77.13c.33-2.22.64-4.36,1-6.51M.42,19.08l.74,2.38q.7,2.25,1.42,4.56c.2.65.42.79.57.38s.26-.73.41-1.07a1,1,0,0,0-.07-.79c-.37-1-.72-1.93-1.07-2.88l-1-2.8-1,.21M18.28,49l-.17-.25c-.15.13-.35.19-.44.41-.58,1.49-1.12,3-1.66,4.48-.26.7-.26.7.37,2.08,1,0,2.09.09,3.18.12.08,0,.16-.16.12-.3-.46-2.21-.94-4.39-1.41-6.55M3.61,29.34l2,6.52c.33-.66.61-1.31,1-1.85.22-.35.13-.73-.09-1.38a6.79,6.79,0,0,0-1.73-3c-.47-.44-.83-.64-1.17-.31m8.64,26,.13.23c.16-.11.37-.13.46-.35.33-.77.6-1.64.92-2.45a1.24,1.24,0,0,0-.1-.92c-.5-1.31-1-2.61-1.45-3.89-.28-.74-.81-1.25-1.07-1a.47.47,0,0,0,0,.3q.56,4,1.14,8.1m8.94-28.9L21,26.35l-2.89,5,2.08,4a9,9,0,0,0,1-4.54c-.08-1,0-1.92,0-2.88ZM5.91,44,4.52,46.52C5.35,47.77,6.15,49,7,50.19c.12.17.33.39.36.32a1.36,1.36,0,0,0,.24-.92c-.5-1.86-1.08-3.69-1.66-5.64M1,15.07,3.79,12a3.08,3.08,0,0,1-.57-.31c-.78-.64-1.32-.46-1.75.39a11.73,11.73,0,0,1-1,1.53L1,15.07M12.74,37.95c-.44-.46-.82-.86-1.19-1.23s-.8-1-1.07-1-.39.55-.56.88a1.29,1.29,0,0,0-.21.66,12.14,12.14,0,0,0,1.17,3.93l1.86-3.24m4.64-8.07,3.42-6-.11-.17c-1.45.47-2.85.91-4.2,1.37-.07,0-.1.28-.07.44.29,1.35.6,2.71,1,4.31M8.73,38.77l-.87,1.59c-.55,1-.55,1,.1,3a.41.41,0,0,0,0,.07c.11.15.24.38.33.42.25.11.56.28.73.16s.7-.46.66-1a9.77,9.77,0,0,0-1-4.22M16,67l.06.21L20.74,71,18.49,64.9,16,67M6.69,21.21c-.1.23-.16.35-.21.47C6,22.85,5.61,24,5.15,25.15a1.35,1.35,0,0,0,.18,1.31c.6-.21,1.21-.41,1.83-.65.07,0,.14-.22.12-.36-.18-1.35-.37-2.7-.59-4.24M4,47.5l1.63,6.67,1.16-2.41L4,47.5m6,27.37-.09-.09L9.15,79.6c.53.91,1,1.53,1.3,1.24a1,1,0,0,1,.69-.2c.22,0,.2-.28.06-.84-.3-1.17-.56-2.32-.84-3.47L10,74.87m-.12-10.5c.22-1.48.42-2.92.66-4.31a3.11,3.11,0,0,0-.31-1.58L8.31,61.25l1.56,3.11m-.94,3.47.12.21c.12-.19.29-.29.36-.59.13-.59.21-1.27.28-2a1.67,1.67,0,0,0-.14-.66c-.51-1.06-1-2.09-1.61-3.24-.12.32-.37.52-.29.91C8,64.24,8.5,66,8.94,67.84m-3.88-13,.06,0L3.56,48.29,2.64,50l2.42,4.81M18.74,78l1.66,5.33c1.21-.12.66-2.75.8-4.6L18.74,78m.07-15.78a14.68,14.68,0,0,1,1.54-1.58c.41-.31.34-1,0-2l-2.94-.16,1.42,3.75M10.27,46.74a7.12,7.12,0,0,0-.84-.22c-.3,0-.37.36-.18,1L11,53c.06.19.13.37.2.56h.07c-.32-2.25-.63-4.48-1-6.8M6.09,28.47c.52,1.71.75,2.17,1.37,2.79.36.36.65.19.57-.43-.1-.91-.25-1.84-.39-2.85l-1.55.49M1.83,30l-.06-.15-1.32.43s-.07.08-.07.15c0,1.06,0,2.12,0,3.18l.08.1L1.83,30M.41,38.26v3.8l1.38.32L.41,38.26M11.76,63.5l-.1-.06c-.16,1-.33,2.07-.48,3.12a1.61,1.61,0,0,0,.14.63c.08.19.28.45.35.46.44,0,.87-.06,1.31-.1l-1.21-4m9.37,4.85v-5.5l-.1-.14L19.51,64l1.63,4.31m-4.72-28-1-4.43-1.27,2.17,2.22,2.27M.89,67.85c.21.29.36.54.5.7s.27.28.32.22a7.64,7.64,0,0,0,.6-.85l-.66-1.7L.89,67.85M15.42,48.27l-.09-.2-2.07-.54L14.5,50.8l.92-2.53m5.72-3.18V40a12,12,0,0,0-.63,1.23,3.8,3.8,0,0,0,0,2.89c.13.49.27.81.62.95m-2-7.25.11.09c.2-.53.4-1,.6-1.6a.66.66,0,0,0,0-.37c-.57-1.11-1.13-2.19-1.69-3.26l-.11,0,1.14,5.12M6.32,13.34c.12.84.23,1.59.34,2.37.47-.05.81-.65,1-1.67l-1.31-.7m7.44,56.84-.92.06L15,74.44l.07-.06-1.26-4.2M8.65,29.85l1.21-2.41-.07-.15c-.45.14-.89.27-1.32.42-.05,0-.09.16-.08.27.07.56.16,1.12.27,1.87M10.59,17l1.64,3.12.09,0-.7-3.29-1,.21m7.31,4.87L18,22l2.65-.93a8,8,0,0,0-1.57-1,.22.22,0,0,0-.27.07c-.32.54-.61,1.11-.91,1.66M1.32,44.48l-.05-.15C1,44.26.75,44.18.5,44.13c-.05,0-.11,0-.11.14,0,.59,0,1.21,0,1.82l.08.12.86-1.72M1.12,27.94.41,25.6v2.58l.71-.24M2.34,69.89c.45.76.84,1.32,1.09,1l-.62-1.62-.47.67M.4,63v1.74l.05.1.36-.74L.4,63M.85,10.45C.42,10.16.33,10.3.44,11l.41-.59"/><polygon class="cls-1" points="63.37 5.55 45.99 0 9.02 6.89 23.85 14.6 63.37 5.55"/></svg>